Coordinates
version=1
nRows=11
nColumns=40
inDegrees=yes

Units are S.I. units (second, meters, Newtons, ...)
Angles are in degrees.

endheader
time	pelvis_tilt	pelvis_list	pelvis_rotation	pelvis_tx	pelvis_ty	pelvis_tz	hip_flexion_r	hip_adduction_r	hip_rotation_r	knee_angle_r	knee_angle_r_beta	ankle_angle_r	subtalar_angle_r	mtp_angle_r	hip_flexion_l	hip_adduction_l	hip_rotation_l	knee_angle_l	knee_angle_l_beta	ankle_angle_l	subtalar_angle_l	mtp_angle_l	lumbar_extension	lumbar_bending	lumbar_rotation	arm_flex_r	arm_add_r	arm_rot_r	elbow_flex_r	pro_sup_r	wrist_flex_r	wrist_dev_r	arm_flex_l	arm_add_l	arm_rot_l	elbow_flex_l	pro_sup_l	wrist_flex_l	wrist_dev_l
      6.62000000	     -0.65379031	     -4.49233703	      1.89510712	      1.03720620	      0.93429145	      0.50484129	     10.33266710	      2.45609058	    -13.62689708	     17.17150532	     17.17150532	      9.29165901	     -1.83187681	     -4.71880187	     27.76761918	    -12.68258851	     -0.41284181	     57.49902149	     57.49902149	     12.62582823	    -19.00709935	     16.16727181	    -11.61108886	      5.62882624	      1.74656220	     15.59265444	    -18.08759998	     -5.11735000	     53.28139799	     45.60156397	      0.00000000	      0.00000000	      5.84687211	    -10.93139102	     -3.54049862	     50.93782008	     46.03671664	      0.00000000	      0.00000000
      6.63335714	     -0.89534701	     -4.13619501	      2.29685984	      1.03528667	      0.93509124	      0.50539110	      9.94094096	      2.19791084	    -13.77981995	     16.48244217	     16.48244217	      9.31360001	     -1.83564108	     -4.66387572	     28.65605577	    -12.00755386	     -0.21122640	     54.55877408	     54.55877408	     12.63492064	    -18.91267480	     16.11243299	    -11.62768806	      5.17090540	      1.57104867	     17.03382518	    -17.79397111	     -5.06224543	     54.62011756	     45.55792405	      0.00000000	      0.00000000	      5.42420143	    -11.07338183	     -3.57300998	     50.18703665	     46.03475422	      0.00000000	      0.00000000
      6.64671429	     -1.13658660	     -3.81756379	      2.70387040	      1.03337866	      0.93580202	      0.50586741	      9.52838098	      1.96986740	    -14.01690442	     15.75142279	     15.75142279	      9.29128913	     -1.74112470	     -4.69817375	     29.30803510	    -11.29895886	      0.06811598	     51.25964786	     51.25964786	     12.47901717	    -18.78245122	     15.73941747	    -11.66517699	      4.78712003	      1.29532146	     18.48823137	    -17.53216807	     -4.86232675	     56.28351222	     45.49744700	      0.00000000	      0.00000000	      5.13514753	    -11.17172524	     -3.69652709	     48.96168927	     46.03919212	      0.00000000	      0.00000000
      6.66007143	     -1.45508777	     -3.47717937	      3.07463407	      1.03146233	      0.93629648	      0.50627455	      9.24513616	      1.70668117	    -14.20900053	     15.10719944	     15.10719944	      9.31275165	     -1.70137780	     -4.74777162	     29.83443425	    -10.51982907	      0.36351006	     47.71484306	     47.71484306	     12.26461037	    -18.51942925	     15.48200000	    -11.60039922	      4.35278345	      1.24214111	     19.86561707	    -17.44385260	     -4.67800961	     57.73685913	     45.44569824	      0.00000000	      0.00000000	      4.92789886	    -11.16488771	     -3.80380918	     47.85599100	     46.04173141	      0.00000000	      0.00000000
      6.67342857	     -1.65923342	     -3.19409766	      3.45744996	      1.02962487	      0.93688422	      0.50658940	      8.82702358	      1.49776168	    -14.48836546	     14.44755199	     14.44755199	      9.29130138	     -1.54478393	     -4.92461922	     30.01469796	     -9.74081423	      0.81502280	     43.89648528	     43.89648528	     11.82833966	    -18.18520265	     14.88700245	    -11.69323442	      4.02661146	      0.96214139	     21.18855583	    -17.17583764	     -4.29085123	     59.67920089	     45.36953700	      0.00000000	      0.00000000	      4.86207972	    -11.25550856	     -4.03649139	     46.08469709	     46.05597711	      0.00000000	      0.00000000
      6.68678571	     -1.92834061	     -3.07485096	      3.83762353	      1.02777595	      0.93699030	      0.50685131	      8.51871490	      1.43145010	    -14.94463302	     13.81703416	     13.81703416	      9.11050831	     -1.23244442	     -5.85121420	     30.13358693	     -9.18815312	      1.25262785	     39.91198559	     39.91198559	     10.26200272	    -17.69232985	     11.11446254	    -11.67167130	      3.91946567	      1.49240775	     21.55532527	    -18.05491594	     -3.14342484	     63.31175041	     45.21050788	      0.00000000	      0.00000000	      6.18309269	    -10.56162951	     -5.14488144	     41.79350028	     46.17242143	      0.00000000	      0.00000000
      6.70014286	     -2.22692439	     -2.89802530	      4.15120342	      1.02594825	      0.93704571	      0.50702010	      8.31956554	      1.31849136	    -15.07230283	     13.33331722	     13.33331722	      9.01767308	     -1.34774020	     -6.24872532	     30.10329752	     -8.53340941	      1.79928198	     35.87206414	     35.87206414	      9.39261207	    -16.90377949	      9.02320184	    -11.68214146	      3.67873155	      1.67133536	     22.45800172	    -18.06153766	     -3.34249404	     65.49826360	     45.16893407	      0.00000000	      0.00000000	      6.56567431	    -10.33919484	     -5.77274291	     39.75884989	     46.24745493	      0.00000000	      0.00000000
      6.71350000	     -2.51852084	     -2.76954860	      4.45626223	      1.02412430	      0.93694675	      0.50711218	      8.15976752	      1.22171536	    -15.33239999	     12.95024498	     12.95024498	      9.09111742	     -1.22699114	     -6.47938597	     30.12046962	     -7.96470716	      2.36128194	     32.17714427	     32.17714427	      9.11166114	    -15.56497835	      8.46351571	    -11.68221365	      3.49124981	      1.62557993	     23.63599561	    -17.98055797	     -2.97291932	     67.38842180	     45.11616410	      0.00000000	      0.00000000	      6.71846654	    -10.32876616	     -6.07105282	     37.90420404	     46.27765155	      0.00000000	      0.00000000
      6.72685714	     -2.80908732	     -2.65769356	      4.73138064	      1.02234749	      0.93672357	      0.50716850	      8.05171938	      1.14096518	    -15.47043501	     12.67161931	     12.67161931	      9.24246589	     -1.26202342	     -6.55226510	     30.13018685	     -7.48250125	      2.79187068	     28.76084087	     28.76084087	      9.16521138	    -13.81507666	      8.72405980	    -11.68159858	      3.28387821	      1.43664122	     25.01949804	    -17.57095775	     -2.87162015	     68.71444605	     45.07732468	      0.00000000	      0.00000000	      6.41415724	    -10.50987508	     -6.09826691	     37.06971809	     46.27386969	      0.00000000	      0.00000000
      6.74021429	     -3.08956545	     -2.63939056	      5.00111680	      1.02059564	      0.93636743	      0.50711683	      7.95085695	      1.14290187	    -15.66982117	     12.41516910	     12.41516910	      9.38199310	     -1.19422309	     -6.67230253	     30.16761680	     -7.13537027	      3.13706491	     25.68603221	     25.68603221	      9.12128532	    -11.99471117	      8.90452624	    -11.70709516	      3.20789882	      1.19037016	     26.33245008	    -17.18179372	     -2.56566934	     70.32292155	     45.02248492	      0.00000000	      0.00000000	      6.22779195	    -10.65604424	     -6.15150549	     35.87979138	     46.27433365	      0.00000000	      0.00000000
      6.75357143	     -3.49547597	     -2.88999633	      5.29363161	      1.01877815	      0.93555663	      0.50703455	      8.09476386	      1.39925124	    -15.91911218	     12.31406000	     12.31406000	      9.52757050	     -1.23399624	     -6.77785616	     30.57210753	     -7.04006779	      3.55046060	     23.25312695	     23.25312695	      8.96485885	    -10.51915239	      9.20451596	    -11.52159173	      3.39067116	      1.32721816	     27.65766015	    -17.16124131	     -2.51512459	     71.27625543	     44.99613658	      0.00000000	      0.00000000	      6.06779185	    -10.62786874	     -6.15090744	     35.37095522	     46.27093724	      0.00000000	      0.00000000
